# xmcd CD database file
#
# Track frame offsets:
#	150
#	12615
#	26295
#	39372
#	50796
#	63544
#	77150
#	89729
#	102610
#	116517
#	131520
#	145878
#	158812
#	173636
#	186952
#	199438
#	214660
#	228771
#	245236
#	258148
#	273308
#	288763
#	302006
#	316586
#
# Disc length: 4399 seconds
#
# Revision: 0
# Processed by: cddbd v1.5.2PL0 Copyright (c) Steve Scherf et al.
# Submitted via: CDex 1.70beta2
#
DISCID=58112d18
DTITLE=Big Bill Broonzy - BD Blues 10 - Big Bill Broonzy 1940/1956-cd2
DYEAR=1900
DGENRE=Blues
TTITLE0=Midnight Steppers
TTITLE1=Looking Up At Down
TTITLE2=Rockin' Chair Blues
TTITLE3=All By Myself
TTITLE4=I Feel So Good
TTITLE5=Tell Me Baby
TTITLE6=Roll Them Bones
TTITLE7=You Got The Best Go
TTITLE8=Why Did You Do That
TTITLE9=Old Man Blues
TTITLE10=Saturday Evening Blues
TTITLE11=Stop Lying Woman
TTITLE12=Summertime Blues
TTITLE13=You've Been Mistreating Me
TTITLE14=Water Coast Blues
TTITLE15=House Rent Stomp
TTITLE16=Black, Brown And Whit
TTITLE17=Blues In 1890 (Joe Turner Blues)
TTITLE18=Tomorrow
TTITLE19=John Henry
TTITLE20=Kind Hearted Woman
TTITLE21=Little City Woman
TTITLE22=Romance Without Finance
TTITLE23=Hey Hey Baby
EXTD=
EXTT0=
EXTT1=
EXTT2=
EXTT3=
EXTT4=
EXTT5=
EXTT6=
EXTT7=
EXTT8=
EXTT9=
EXTT10=
EXTT11=
EXTT12=
EXTT13=
EXTT14=
EXTT15=
EXTT16=
EXTT17=
EXTT18=
EXTT19=
EXTT20=
EXTT21=
EXTT22=
EXTT23=
PLAYORDER=
